<svg xmlns="http://www.w3.org/2000/svg" xmlns:xlink="http://www.w3.org/1999/xlink" width="480" zoomAndPan="magnify" viewBox="0 0 360 359.999987" height="480" preserveAspectRatio="xMidYMid meet" version="1.0"><defs><clipPath id="d5f92b836e"><path d="M 56.992188 162.582031 L 127.578125 162.582031 L 127.578125 233.167969 L 56.992188 233.167969 Z M 56.992188 162.582031 " clip-rule="nonzero"/></clipPath><clipPath id="6e0a234692"><path d="M 92.285156 162.582031 C 72.792969 162.582031 56.992188 178.382812 56.992188 197.875 C 56.992188 217.367188 72.792969 233.167969 92.285156 233.167969 C 111.777344 233.167969 127.578125 217.367188 127.578125 197.875 C 127.578125 178.382812 111.777344 162.582031 92.285156 162.582031 Z M 92.285156 162.582031 " clip-rule="nonzero"/></clipPath><clipPath id="3385ba9bef"><path d="M 0.992188 0.582031 L 71.578125 0.582031 L 71.578125 71.167969 L 0.992188 71.167969 Z M 0.992188 0.582031 " clip-rule="nonzero"/></clipPath><clipPath id="91ed047b50"><path d="M 36.285156 0.582031 C 16.792969 0.582031 0.992188 16.382812 0.992188 35.875 C 0.992188 55.367188 16.792969 71.167969 36.285156 71.167969 C 55.777344 71.167969 71.578125 55.367188 71.578125 35.875 C 71.578125 16.382812 55.777344 0.582031 36.285156 0.582031 Z M 36.285156 0.582031 " clip-rule="nonzero"/></clipPath><clipPath id="5a18d58005"><rect x="0" width="72" y="0" height="72"/></clipPath><clipPath id="eafd185138"><path d="M 142.667969 86.453125 L 192.472656 86.453125 L 192.472656 136.253906 L 142.667969 136.253906 Z M 142.667969 86.453125 " clip-rule="nonzero"/></clipPath><clipPath id="e430d0b05e"><path d="M 167.570312 86.453125 C 153.816406 86.453125 142.667969 97.601562 142.667969 111.351562 C 142.667969 125.105469 153.816406 136.253906 167.570312 136.253906 C 181.324219 136.253906 192.472656 125.105469 192.472656 111.351562 C 192.472656 97.601562 181.324219 86.453125 167.570312 86.453125 Z M 167.570312 86.453125 " clip-rule="nonzero"/></clipPath><clipPath id="f57c38a40f"><path d="M 0.667969 0.453125 L 50.472656 0.453125 L 50.472656 50.253906 L 0.667969 50.253906 Z M 0.667969 0.453125 " clip-rule="nonzero"/></clipPath><clipPath id="0b7bb37be2"><path d="M 25.570312 0.453125 C 11.816406 0.453125 0.667969 11.601562 0.667969 25.351562 C 0.667969 39.105469 11.816406 50.253906 25.570312 50.253906 C 39.324219 50.253906 50.472656 39.105469 50.472656 25.351562 C 50.472656 11.601562 39.324219 0.453125 25.570312 0.453125 Z M 25.570312 0.453125 " clip-rule="nonzero"/></clipPath><clipPath id="831c02be92"><rect x="0" width="51" y="0" height="51"/></clipPath><clipPath id="99185aa971"><path d="M 192.472656 155.097656 L 242.273438 155.097656 L 242.273438 204.902344 L 192.472656 204.902344 Z M 192.472656 155.097656 " clip-rule="nonzero"/></clipPath><clipPath id="f7a928824f"><path d="M 217.371094 155.097656 C 203.621094 155.097656 192.472656 166.246094 192.472656 180 C 192.472656 193.753906 203.621094 204.902344 217.371094 204.902344 C 231.125 204.902344 242.273438 193.753906 242.273438 180 C 242.273438 166.246094 231.125 155.097656 217.371094 155.097656 Z M 217.371094 155.097656 " clip-rule="nonzero"/></clipPath><clipPath id="9d3f5887f8"><path d="M 0.472656 0.0976562 L 50.273438 0.0976562 L 50.273438 49.902344 L 0.472656 49.902344 Z M 0.472656 0.0976562 " clip-rule="nonzero"/></clipPath><clipPath id="0230d71893"><path d="M 25.371094 0.0976562 C 11.621094 0.0976562 0.472656 11.246094 0.472656 25 C 0.472656 38.753906 11.621094 49.902344 25.371094 49.902344 C 39.125 49.902344 50.273438 38.753906 50.273438 25 C 50.273438 11.246094 39.125 0.0976562 25.371094 0.0976562 Z M 25.371094 0.0976562 " clip-rule="nonzero"/></clipPath><clipPath id="ef2df48e1e"><rect x="0" width="51" y="0" height="50"/></clipPath></defs><g clip-path="url(#d5f92b836e)"><g clip-path="url(#6e0a234692)"><g transform="matrix(1, 0, 0, 1, 56, 162)"><g clip-path="url(#5a18d58005)"><g clip-path="url(#3385ba9bef)"><g clip-path="url(#91ed047b50)"><path fill="#ffffff" d="M 0.992188 0.582031 L 71.578125 0.582031 L 71.578125 71.167969 L 0.992188 71.167969 Z M 0.992188 0.582031 " fill-opacity="1" fill-rule="nonzero"/></g></g></g></g></g></g><g clip-path="url(#eafd185138)"><g clip-path="url(#e430d0b05e)"><g transform="matrix(1, 0, 0, 1, 142, 86)"><g clip-path="url(#831c02be92)"><g clip-path="url(#f57c38a40f)"><g clip-path="url(#0b7bb37be2)"><path fill="#ffffff" d="M 0.667969 0.453125 L 50.472656 0.453125 L 50.472656 50.253906 L 0.667969 50.253906 Z M 0.667969 0.453125 " fill-opacity="1" fill-rule="nonzero"/></g></g></g></g></g></g><g clip-path="url(#99185aa971)"><g clip-path="url(#f7a928824f)"><g transform="matrix(1, 0, 0, 1, 192, 155)"><g clip-path="url(#ef2df48e1e)"><g clip-path="url(#9d3f5887f8)"><g clip-path="url(#0230d71893)"><path fill="#ffffff" d="M 0.472656 0.0976562 L 50.273438 0.0976562 L 50.273438 49.902344 L 0.472656 49.902344 Z M 0.472656 0.0976562 " fill-opacity="1" fill-rule="nonzero"/></g></g></g></g></g></g></svg>