<svg xmlns="http://www.w3.org/2000/svg" xmlns:xlink="http://www.w3.org/1999/xlink" width="480" zoomAndPan="magnify" viewBox="0 0 360 359.999987" height="480" preserveAspectRatio="xMidYMid meet" version="1.0"><defs><clipPath id="cd7bc639bb"><path d="M 139.71875 139.71875 L 220.28125 139.71875 L 220.28125 220.28125 L 139.71875 220.28125 Z M 139.71875 139.71875 " clip-rule="nonzero"/></clipPath><clipPath id="a8b3328ffe"><path d="M 180 139.71875 C 157.753906 139.71875 139.71875 157.753906 139.71875 180 C 139.71875 202.246094 157.753906 220.28125 180 220.28125 C 202.246094 220.28125 220.28125 202.246094 220.28125 180 C 220.28125 157.753906 202.246094 139.71875 180 139.71875 Z M 180 139.71875 " clip-rule="nonzero"/></clipPath><clipPath id="9a41d686a8"><path d="M 0.71875 0.71875 L 81.28125 0.71875 L 81.28125 81.28125 L 0.71875 81.28125 Z M 0.71875 0.71875 " clip-rule="nonzero"/></clipPath><clipPath id="0f3565a373"><path d="M 41 0.71875 C 18.753906 0.71875 0.71875 18.753906 0.71875 41 C 0.71875 63.246094 18.753906 81.28125 41 81.28125 C 63.246094 81.28125 81.28125 63.246094 81.28125 41 C 81.28125 18.753906 63.246094 0.71875 41 0.71875 Z M 41 0.71875 " clip-rule="nonzero"/></clipPath><clipPath id="9021d8ab17"><rect x="0" width="82" y="0" height="82"/></clipPath></defs><g clip-path="url(#cd7bc639bb)"><g clip-path="url(#a8b3328ffe)"><g transform="matrix(1, 0, 0, 1, 139, 139)"><g clip-path="url(#9021d8ab17)"><g clip-path="url(#9a41d686a8)"><g clip-path="url(#0f3565a373)"><path fill="#ffffff" d="M 0.71875 0.71875 L 81.28125 0.71875 L 81.28125 81.28125 L 0.71875 81.28125 Z M 0.71875 0.71875 " fill-opacity="1" fill-rule="nonzero"/></g></g></g></g></g></g></svg>