<svg xmlns="http://www.w3.org/2000/svg" xmlns:xlink="http://www.w3.org/1999/xlink" width="480" zoomAndPan="magnify" viewBox="0 0 360 359.999987" height="480" preserveAspectRatio="xMidYMid meet" version="1.0"><defs><clipPath id="1f25821545"><path d="M 223.273438 165.90625 L 303.839844 165.90625 L 303.839844 246.472656 L 223.273438 246.472656 Z M 223.273438 165.90625 " clip-rule="nonzero"/></clipPath><clipPath id="447191acbc"><path d="M 263.554688 165.90625 C 241.308594 165.90625 223.273438 183.941406 223.273438 206.1875 C 223.273438 228.4375 241.308594 246.472656 263.554688 246.472656 C 285.804688 246.472656 303.839844 228.4375 303.839844 206.1875 C 303.839844 183.941406 285.804688 165.90625 263.554688 165.90625 Z M 263.554688 165.90625 " clip-rule="nonzero"/></clipPath><clipPath id="6cfc926096"><path d="M 0.273438 0.90625 L 80.839844 0.90625 L 80.839844 81.472656 L 0.273438 81.472656 Z M 0.273438 0.90625 " clip-rule="nonzero"/></clipPath><clipPath id="fc51a17f09"><path d="M 40.554688 0.90625 C 18.308594 0.90625 0.273438 18.941406 0.273438 41.1875 C 0.273438 63.4375 18.308594 81.472656 40.554688 81.472656 C 62.804688 81.472656 80.839844 63.4375 80.839844 41.1875 C 80.839844 18.941406 62.804688 0.90625 40.554688 0.90625 Z M 40.554688 0.90625 " clip-rule="nonzero"/></clipPath><clipPath id="66955756ef"><rect x="0" width="81" y="0" height="82"/></clipPath><clipPath id="a1d019a8f0"><path d="M 131.03125 90.332031 L 195.796875 90.332031 L 195.796875 155.097656 L 131.03125 155.097656 Z M 131.03125 90.332031 " clip-rule="nonzero"/></clipPath><clipPath id="330a10fc89"><path d="M 163.414062 90.332031 C 145.527344 90.332031 131.03125 104.832031 131.03125 122.714844 C 131.03125 140.601562 145.527344 155.097656 163.414062 155.097656 C 181.296875 155.097656 195.796875 140.601562 195.796875 122.714844 C 195.796875 104.832031 181.296875 90.332031 163.414062 90.332031 Z M 163.414062 90.332031 " clip-rule="nonzero"/></clipPath><clipPath id="b79b756653"><path d="M 0.03125 0.332031 L 64.796875 0.332031 L 64.796875 65.097656 L 0.03125 65.097656 Z M 0.03125 0.332031 " clip-rule="nonzero"/></clipPath><clipPath id="9d94376dca"><path d="M 32.414062 0.332031 C 14.527344 0.332031 0.03125 14.832031 0.03125 32.714844 C 0.03125 50.601562 14.527344 65.097656 32.414062 65.097656 C 50.296875 65.097656 64.796875 50.601562 64.796875 32.714844 C 64.796875 14.832031 50.296875 0.332031 32.414062 0.332031 Z M 32.414062 0.332031 " clip-rule="nonzero"/></clipPath><clipPath id="a65d9090b5"><rect x="0" width="65" y="0" height="66"/></clipPath></defs><g clip-path="url(#1f25821545)"><g clip-path="url(#447191acbc)"><g transform="matrix(1, 0, 0, 1, 223, 165)"><g clip-path="url(#66955756ef)"><g clip-path="url(#6cfc926096)"><g clip-path="url(#fc51a17f09)"><path fill="#ffffff" d="M 0.273438 0.90625 L 80.839844 0.90625 L 80.839844 81.472656 L 0.273438 81.472656 Z M 0.273438 0.90625 " fill-opacity="1" fill-rule="nonzero"/></g></g></g></g></g></g><g clip-path="url(#a1d019a8f0)"><g clip-path="url(#330a10fc89)"><g transform="matrix(1, 0, 0, 1, 131, 90)"><g clip-path="url(#a65d9090b5)"><g clip-path="url(#b79b756653)"><g clip-path="url(#9d94376dca)"><path fill="#ffffff" d="M 0.03125 0.332031 L 64.796875 0.332031 L 64.796875 65.097656 L 0.03125 65.097656 Z M 0.03125 0.332031 " fill-opacity="1" fill-rule="nonzero"/></g></g></g></g></g></g></svg>