<svg xmlns="http://www.w3.org/2000/svg" xmlns:xlink="http://www.w3.org/1999/xlink" width="480" zoomAndPan="magnify" viewBox="0 0 360 359.999987" height="480" preserveAspectRatio="xMidYMid meet" version="1.0"><defs><clipPath id="511f3b1538"><path d="M 36.003906 38.667969 L 323.996094 38.667969 L 323.996094 321.417969 L 36.003906 321.417969 Z M 36.003906 38.667969 " clip-rule="nonzero"/></clipPath><clipPath id="0b4b1a2e0f"><path d="M 180 38.667969 L 196.53125 127.195312 L 258.398438 61.597656 L 224.796875 145.328125 L 312.261719 123.464844 L 238.664062 175.726562 L 323.996094 205.058594 L 233.863281 208.792969 L 289.863281 279.191406 L 212 233.859375 L 221.066406 323.988281 L 180 243.460938 L 138.933594 323.988281 L 148 233.859375 L 70.136719 279.191406 L 126.136719 208.792969 L 36.003906 205.058594 L 121.335938 175.726562 L 47.738281 123.464844 L 135.203125 145.328125 L 101.601562 61.597656 L 163.46875 127.195312 Z M 180 38.667969 " clip-rule="nonzero"/></clipPath></defs><g clip-path="url(#511f3b1538)"><g clip-path="url(#0b4b1a2e0f)"><path stroke-linecap="butt" transform="matrix(0.75, 0, 0, 0.75, 36.00531, 38.666599)" fill="none" stroke-linejoin="miter" d="M 191.992935 0.00182693 L 214.034603 118.038295 L 296.524193 30.574746 L 251.722106 142.21538 L 368.341907 113.064336 L 270.211691 182.746633 L 383.987742 221.856011 L 263.810649 226.835178 L 338.477321 320.699769 L 234.659605 260.257056 L 246.748147 380.42894 L 191.992935 273.05914 L 137.237722 380.42894 L 149.326265 260.257056 L 45.508548 320.699769 L 120.175221 226.835178 L -0.00187201 221.856011 L 113.774179 182.746633 L 15.643963 113.064336 L 132.263763 142.21538 L 87.461677 30.574746 L 169.951266 118.038295 Z M 191.992935 0.00182693 " stroke="#000000" stroke-width="2" stroke-opacity="1" stroke-miterlimit="4"/></g></g></svg>